<svg width="144" height="103" viewBox="0 0 144 103" fill="none" xmlns="http://www.w3.org/2000/svg">
<rect opacity="0.75" x="11.6149" y="6.19458" width="120.794" height="89.8215" fill="white"/>
<path d="M140.448 36.4835C138.998 36.0009 138.804 35.1323 138.804 33.781V12.6438C138.804 4.15024 134.648 0 126.239 0H18.2688C17.4956 0 16.7223 0 15.949 0.0965173C12.2759 0.386069 8.69945 1.35124 6.95956 4.92238C5.89629 7.04576 5.31633 9.55521 5.31633 11.8716C5.02635 19.786 5.21967 27.797 5.21967 35.9044C0.773284 36.6766 0 39.8616 0 43.5293C0.0966605 48.8377 0 54.1462 0.0966605 59.3581C0.0966605 63.7979 1.06327 65.2457 5.21967 66.8865V91.2088C5.21967 92.0775 5.21967 93.0426 5.41299 93.9113C6.76624 99.7023 10.7293 102.598 17.2056 102.598H128.075C134.648 102.115 138.708 97.772 138.804 91.3053V66.6934C142.284 66.1143 143.831 63.8944 143.928 60.7094C144.024 54.5323 144.024 48.2586 143.928 42.0815C143.831 39.6686 143.058 37.3522 140.448 36.4835ZM97.7238 25.6736C97.7238 22.2955 97.6271 18.9174 97.7238 15.6358C97.7238 12.1612 99.657 10.3273 103.04 10.3273C109.42 10.2308 115.896 10.2308 122.276 10.3273C126.239 10.3273 128.365 12.2577 128.462 16.1184C128.558 22.6816 128.558 29.3412 128.462 36.0009C128.462 39.2825 126.432 41.0198 123.145 41.0198C116.573 41.1164 110 41.1164 103.427 41.0198C99.4637 41.0198 97.7238 39.186 97.7238 35.2288V25.6736ZM56.5464 15.8288C56.6431 12.1612 58.4796 10.3273 62.1527 10.3273C68.5323 10.2308 74.8152 10.2308 81.1948 10.3273C85.0612 10.3273 87.2844 12.2577 87.3811 16.1184C87.4778 22.7781 87.4778 29.3412 87.3811 36.0009C87.3811 39.2825 85.3512 41.0198 81.9681 41.0198C75.3952 41.1164 68.8223 41.1164 62.2494 41.0198C58.3829 41.0198 56.6431 39.186 56.5464 35.2288V15.8288ZM15.4657 15.6358C15.5623 12.2577 17.3989 10.3273 20.782 10.3273C27.2583 10.2308 33.7345 10.2308 40.3074 10.3273C43.9805 10.3273 46.2037 12.2577 46.2037 16.1184C46.397 22.6816 46.397 29.3412 46.2037 35.9044C46.2037 39.2825 44.1739 41.0198 40.7907 41.0198C34.2178 41.1164 27.6449 41.1164 21.072 41.0198C17.2056 41.0198 15.369 39.186 15.369 35.2288V15.6358H15.4657ZM60.7028 86.0934C58.8663 90.4367 55.4831 92.367 50.7468 92.367H21.8453C17.1089 92.367 15.4657 90.7262 15.4657 85.9004V57.3312C15.4657 53.0845 17.2056 51.3472 21.4586 51.3472H66.7924C71.0455 51.3472 73.3653 54.4357 71.8188 58.3929C68.2423 67.6586 64.4726 76.9243 60.7028 86.0934ZM128.558 86.3829C128.462 90.5332 126.722 92.367 122.566 92.367H77.6184C72.882 92.367 70.7555 89.2785 72.3987 84.8387C75.7818 76.1521 79.3583 67.5621 82.7414 58.8755C84.7713 53.5671 88.541 51.1541 94.244 51.2507C103.427 51.4437 112.706 51.3472 121.889 51.3472C126.529 51.3472 128.462 53.2775 128.558 57.9104V86.3829Z" fill="white"/>
<rect x="98.7618" y="10.9335" width="28.5456" height="28.5456" rx="4.25349" stroke="#DA3832" stroke-width="2.83566"/>
</svg>
