<svg width="24" height="24" viewBox="0 0 24 24" fill="none" xmlns="http://www.w3.org/2000/svg">
<path fill-rule="evenodd" clip-rule="evenodd" d="M15.375 3.89994C15.72 3.89994 16.065 4.03494 16.335 4.28994C16.5869 4.54294 16.7283 4.88542 16.7283 5.24244C16.7283 5.59946 16.5869 5.94194 16.335 6.19494L10.53 11.9999L16.335 17.7899C16.5869 18.0429 16.7283 18.3854 16.7283 18.7424C16.7283 19.0995 16.5869 19.4419 16.335 19.6949C16.082 19.9468 15.7395 20.0883 15.3825 20.0883C15.0254 20.0883 14.683 19.9468 14.43 19.6949L7.67996 12.9449C7.42806 12.6919 7.28664 12.3495 7.28664 11.9924C7.28664 11.6354 7.42806 11.2929 7.67996 11.0399L14.43 4.28994C14.685 4.03494 15.03 3.89994 15.375 3.89994Z" fill="#96A1B2"/>
</svg>
